# xmcd CD database file
#
# Track frame offsets:
#	150
#	17993
#	34088
#	50108
#	65988
#	81535
#	96918
#	112790
#	128095
#	144335
#	160565
#	181998
#	198803
#	225383
#	252860
#	279915
#	303250
#
# Disc length: 4402 seconds
#
# Revision: 0
# Processed by: cddbd v1.5.1PL0 Copyright (c) Steve Scherf et al.
# Submitted via: CDex 1.51
#
DISCID=e1113011
DTITLE=東海林修 - 円谷英二生誕100周年記念CD BOX - Music from the works of EIJI TSUBURAYA - disc4
DYEAR=2001
DGENRE=Anime
TTITLE0=前兆,大怪獣現る
TTITLE1=ゴルゴスを倒せ!
TTITLE2=メインタイトル
TTITLE3=育てよ!カメ・カネゴンの繭・タイトル
TTITLE4=燃えろ!栄光・エンディング
TTITLE5=地底超特急西へ
TTITLE6=忍びよる恐怖
TTITLE7=鳥を見た・エンディング
TTITLE8=ガラモン
TTITLE9=ケムール人
TTITLE10=DIGITAL TRIP 組曲・ウルトラマン シンセサイザー・ファンタジー~ウルトラマン
TTITLE11=DIGITAL TRIP 組曲・ウルトラマン シンセサイザー・ファンタジー~ウルトラセブン
TTITLE12=ウルトラマン ファンタジック組曲“2001”~ ウルトラマンの歌
TTITLE13=ウルトラマン ファンタジック組曲“2001”~ 特捜隊の歌
TTITLE14=ウルトラマン ファンタジック組曲“2001”~ 進め!ウルトラマン
TTITLE15=ウルトラマン ファンタジック組曲“2001”~ ウルトラQ
TTITLE16=ウルトラマン ファンタジック組曲“2001”~ ウルトラマーチ
EXTD=YEAR: 2001
EXTT0=
EXTT1=
EXTT2=
EXTT3=
EXTT4=
EXTT5=
EXTT6=
EXTT7=
EXTT8=
EXTT9=
EXTT10=
EXTT11=
EXTT12=
EXTT13=
EXTT14=
EXTT15=
EXTT16=
PLAYORDER=
